<svg width="66" height="66" viewBox="0 0 66 66" fill="none" xmlns="http://www.w3.org/2000/svg">
<g clip-path="url(#clip0_382_35)">
<path d="M33 50C42.3888 50 50 42.3888 50 33C50 23.6112 42.3888 16 33 16C23.6112 16 16 23.6112 16 33C16 42.3888 23.6112 50 33 50Z" fill="#174A43" stroke="#E7FFDC" stroke-width="32"/>
<path d="M33 60C47.9117 60 60 47.9117 60 33C60 18.0883 47.9117 6 33 6C18.0883 6 6 18.0883 6 33C6 47.9117 18.0883 60 33 60Z" fill="black"/>
<path d="M34 43C42.2843 43 49 36.732 49 29C49 21.268 42.2843 15 34 15C25.7157 15 19 21.268 19 29C19 36.732 25.7157 43 34 43Z" fill="#E7FFDC"/>
<path d="M46 33.3231C46 40.8002 35.5759 63 27.2535 63C18.9311 63 24.8316 49.8557 24.8316 42.3786C21.6923 36.9095 17.5856 33.3231 25.908 33.3231C34.2303 33.3231 46 25.8461 46 33.3231Z" fill="#E7FFDC"/>
<path d="M47.7385 33.2405C47.7385 40.5318 58.3134 55.7045 49.4792 55.7045C44.7185 61.912 29.5798 66.5803 29.5798 59.2891C26.2474 53.9559 22.7451 33.2405 31.5792 33.2405C40.4134 33.2405 47.7385 25.9493 47.7385 33.2405Z" fill="#E7FFDC"/>
<path d="M38.6002 35.6211C46.8156 33.4198 52.5726 28.2657 51.4588 24.1091C50.345 19.9525 42.7823 18.3674 34.5669 20.5688C26.3515 22.7701 20.5945 27.9241 21.7083 32.0807C22.822 36.2373 30.3848 37.8224 38.6002 35.6211Z" fill="#E7FFDC"/>
<path d="M34.1127 24.1012C27.4106 18.8648 19.8297 17.3689 17.1804 20.7599C14.531 24.1509 17.8165 31.1447 24.5187 36.381C31.2209 41.6173 38.8018 43.1132 41.4511 39.7223C44.1004 36.3313 40.8149 29.3375 34.1127 24.1012Z" fill="#E7FFDC"/>
</g>
<defs>
<clipPath id="clip0_382_35">
<rect width="66" height="66" fill="white"/>
</clipPath>
</defs>
</svg>